<svg width="140" height="76" viewBox="0 0 140 76" fill="none" xmlns="http://www.w3.org/2000/svg">
<path d="M70.3028 0C68.3332 0 66.6138 1.07947 65.6957 2.67568C63.8211 2.81913 61.9464 3.07767 60.0914 3.48944C58.9633 3.74699 57.8451 4.06161 56.7421 4.43686C55.6415 4.82287 54.5587 5.27637 53.5093 5.80714C51.4129 6.86737 49.4418 8.2608 47.8218 10.0425C47.01 10.9287 46.2973 11.9207 45.7228 13.0097C45.3567 13.7328 45.0379 14.4914 44.8351 15.3179C43.0478 15.2508 41.2534 15.4904 39.5786 16.0707C37.4565 16.7974 35.5411 18.0617 34.0903 19.7078C32.6323 21.3474 31.6441 23.3502 31.204 25.4318C30.756 27.5161 30.8509 29.6607 31.3338 31.6716C31.0785 29.617 31.234 27.5249 31.8769 25.6138C32.513 23.7033 33.6319 21.9916 35.0837 20.6892C36.5309 19.3792 38.3051 18.4908 40.1589 18.0823C42.0146 17.6676 43.9411 17.7298 45.7597 18.1791L47.1358 18.5191L47.4022 16.9379C47.5303 16.175 47.9271 15.3323 48.4246 14.5749C48.9364 13.813 49.5598 13.1042 50.2692 12.4773C51.6822 11.2152 53.3834 10.2505 55.1987 9.55903C56.1064 9.21246 57.044 8.92882 57.9989 8.70093C58.9584 8.48249 59.9332 8.31427 60.9175 8.19396C62.5004 8.01139 64.1054 7.95303 65.7172 7.99085C66.6405 9.56718 68.3482 10.63 70.3028 10.63C72.2596 10.63 73.9676 9.56489 74.8906 7.98629C76.2961 7.9752 77.6967 8.03975 79.0793 8.19885C80.0629 8.31948 81.0371 8.48804 81.9963 8.70647C82.9518 8.93436 83.8898 9.218 84.7981 9.56489C86.6128 10.2557 88.313 11.2204 89.726 12.4825C90.4357 13.1091 91.0591 13.8182 91.5706 14.5801C92.0685 15.3375 92.4659 16.1806 92.594 16.9438L92.8594 18.524L94.2355 18.184C96.0544 17.7347 97.9815 17.6728 99.8373 18.0875C101.691 18.4957 103.465 19.3847 104.912 20.6944C106.364 21.9968 107.483 23.7088 108.118 25.6196C108.762 27.5308 108.917 29.6222 108.662 31.6765C109.145 29.6659 109.24 27.5213 108.792 25.4367C108.352 23.3554 107.363 21.3533 105.905 19.7137C104.455 18.0676 102.539 16.803 100.417 16.0759C98.7422 15.4956 96.9474 15.2569 95.1608 15.3238C94.958 14.4973 94.6388 13.738 94.2724 13.0149C93.6979 11.9263 92.9859 10.9339 92.1744 10.0474C90.5547 8.26601 88.5829 6.87259 86.4866 5.81236C85.4375 5.28126 84.3544 4.82874 83.2537 4.44273C82.1511 4.06715 81.0322 3.75221 79.9045 3.49465C78.2623 3.13016 76.6045 2.88629 74.9453 2.73502C74.0361 1.10587 72.297 0 70.3028 0ZM70.3569 1.39245C72.4969 1.39277 74.2317 3.12788 74.2317 5.2679C74.2314 7.40792 72.4966 9.14237 70.3569 9.14269C68.2165 9.14269 66.4818 7.40792 66.4814 5.2679C66.4814 3.12755 68.2165 1.39245 70.3569 1.39245Z" fill="#DDC190"/>
<path d="M100.121 58.7512L100.428 58.7597L100.814 58.7499C101.073 58.7509 101.328 58.6971 101.586 58.6664C102.605 58.4754 103.584 58.0294 104.383 57.3604C105.184 56.6943 105.827 55.8248 106.202 54.833C106.401 54.3417 106.516 53.8181 106.579 53.2909L106.606 52.8935L106.616 52.7041L106.62 52.5535L106.632 51.9516L106.649 51.1988C106.65 51.1519 106.646 51.071 106.645 51.0084L106.63 50.6074C106.584 50.0747 106.487 49.5403 106.303 49.0334C105.957 48.011 105.333 47.0945 104.528 46.3747C103.725 45.6519 102.718 45.1524 101.65 44.9157C101.381 44.8736 101.112 44.8091 100.839 44.8009L100.429 44.7765L100.121 44.7703L98.9162 44.7501C95.7052 44.6891 92.4939 44.6607 89.2829 44.6193L87.8432 44.6079L89.6995 35.6726L86.4921 44.5972L79.6492 44.5427L70.6949 44.5209L69.9441 29.3572L69.2901 44.5215L60.3822 44.546L53.8783 44.5982L50.873 36.2363L52.612 44.6086L50.7491 44.6239C47.5381 44.6634 44.3264 44.695 41.1154 44.7553L39.9114 44.7752L39.6027 44.7814L39.1935 44.8058C38.9206 44.8143 38.6517 44.8785 38.3827 44.9206C37.3163 45.1566 36.3085 45.6558 35.5075 46.3792C34.7035 47.0981 34.0795 48.0139 33.7343 49.0357C33.5504 49.5417 33.4535 50.076 33.4069 50.6081L33.3919 51.0088C33.3909 51.071 33.387 51.1519 33.3887 51.1988L33.3916 51.3495L33.4177 52.5535L33.4206 52.7041L33.4307 52.8935L33.4581 53.2906C33.5214 53.8168 33.6374 54.3401 33.8353 54.8307C34.2102 55.8219 34.8522 56.6904 35.6523 57.3561C36.451 58.0245 37.4297 58.4708 38.4473 58.6612C38.7042 58.6915 38.9594 58.746 39.218 58.7443L39.6043 58.7535L39.9114 58.7453L41.1154 58.7085C44.3264 58.6143 47.5381 58.505 50.7491 58.3838C57.1711 58.1164 63.5935 57.8605 70.0162 57.4285C63.5935 56.9965 57.1711 56.7406 50.7491 56.4736C47.5381 56.352 44.3264 56.2428 41.1154 56.1485L39.9114 56.1117L39.6167 56.1016L39.4012 56.0801C39.2571 56.0778 39.1195 56.0295 38.9787 56.0116C38.4283 55.8711 37.9106 55.6028 37.4995 55.2148C37.0877 54.8288 36.7715 54.3466 36.6104 53.821C36.5188 53.5625 36.4836 53.29 36.4601 53.02L36.4569 52.8159C36.4562 52.7774 36.4526 52.7576 36.4539 52.7041L36.4575 52.5535L36.483 51.3495L36.4862 51.1988C36.4872 51.1457 36.4927 51.1261 36.495 51.0883L36.5113 50.8878C36.5514 50.6241 36.6055 50.3626 36.7118 50.1187C36.9022 49.6241 37.2361 49.1889 37.6443 48.8567C38.0528 48.5232 38.5415 48.3083 39.0429 48.2134C39.172 48.2066 39.2956 48.1688 39.426 48.1766L39.6183 48.1701L39.9114 48.1743L41.1154 48.1942C44.3264 48.2545 47.5381 48.2858 50.7491 48.3256L60.3822 48.4035L70.0162 48.4299L79.6492 48.4064L89.2829 48.3301C92.4939 48.2887 95.7052 48.2604 98.9162 48.1994L100.121 48.1789L100.414 48.1753L100.606 48.1815C100.735 48.1733 100.859 48.2115 100.988 48.2183C101.489 48.3129 101.977 48.5271 102.384 48.8612C102.791 49.1928 103.125 49.6267 103.315 50.1207C103.421 50.3639 103.475 50.6247 103.515 50.8885L103.531 51.0886C103.534 51.1261 103.539 51.1457 103.54 51.1988L103.557 51.9516L103.573 52.7041C103.574 52.7576 103.571 52.7774 103.57 52.8156L103.567 53.0197C103.543 53.289 103.507 53.5606 103.416 53.8191C103.255 54.3433 102.939 54.8252 102.529 55.2102C102.119 55.5979 101.602 55.8659 101.052 56.0064C100.911 56.0243 100.775 56.0729 100.63 56.0749L100.415 56.0954L100.121 56.1058L98.9162 56.143C95.7052 56.2375 92.4939 56.3471 89.2829 56.468C82.8605 56.7373 76.4379 56.9933 70.0162 57.4285C76.4379 57.8637 82.8605 58.1197 89.2829 58.389C92.4939 58.5102 95.7052 58.6198 98.9162 58.7143L100.121 58.7512Z" fill="#DDC190"/>
<path d="M81.5662 21.9062C81.5662 21.2545 81.0378 20.7266 80.386 20.7266C79.7343 20.7266 79.2061 21.2545 79.2061 21.9062C79.2061 22.5579 79.7343 23.0864 80.386 23.0864C81.0378 23.0864 81.5662 22.5579 81.5662 21.9062Z" fill="#DDC190"/>
<path d="M97.7357 30.2019C97.7357 29.5505 97.2076 29.022 96.5558 29.022C95.9044 29.022 95.3763 29.5505 95.3763 30.2019C95.3763 30.8536 95.9044 31.3818 96.5558 31.3818C97.2076 31.3818 97.7357 30.8536 97.7357 30.2019Z" fill="#DDC190"/>
<path d="M139.95 40.74C139.753 38.3538 138.921 36.0116 137.593 34.02C136.253 32.0319 134.445 30.4265 132.467 29.2554C130.471 28.0837 128.183 27.2915 125.843 27.0952C123.504 26.8924 121.157 27.2194 119.019 27.9856C117.948 28.3667 116.919 28.8375 115.948 29.3992C114.981 29.9659 114.067 30.612 113.216 31.3306C112.363 32.0475 111.583 32.8489 110.882 33.721C110.182 34.5941 109.553 35.5373 109.063 36.5753C108.817 37.0931 108.603 37.6333 108.436 38.197C108.353 38.4712 108.273 38.7835 108.225 39.0352C108.17 39.2989 108.113 39.5614 108.074 39.8287C107.9 40.8912 107.799 41.9648 107.797 43.0378C107.804 45.1814 108.168 47.3257 108.992 49.2805C109.406 50.255 109.924 51.1845 110.58 52.0048C111.243 52.8117 112.026 53.5462 112.957 53.9677C112.18 53.3137 111.609 52.4941 111.184 51.6171C110.748 50.7463 110.458 49.8148 110.25 48.8788C109.852 46.9964 109.84 45.064 110.118 43.1988C110.253 42.2648 110.467 41.3457 110.745 40.4492C110.812 40.2242 110.889 40.0022 110.963 39.7802C111.039 39.5444 111.108 39.3756 111.194 39.1764C111.36 38.7917 111.564 38.4135 111.796 38.0467C112.722 36.5724 114.04 35.2836 115.499 34.2404C116.232 33.7194 117.009 33.262 117.812 32.8763C118.614 32.486 119.443 32.1668 120.285 31.9285C121.973 31.4607 123.706 31.2931 125.371 31.5213C127.036 31.7391 128.632 32.3181 130.076 33.2254C131.543 34.123 132.794 35.2752 133.696 36.6337C134.614 37.9805 135.174 39.5435 135.343 41.1648C135.526 42.7851 135.281 44.4606 134.684 45.9756C134.085 47.4916 133.087 48.8218 131.823 49.7425C131.505 49.9717 131.17 50.1741 130.821 50.3476C130.469 50.5213 130.116 50.6612 129.728 50.7818C128.959 51.0192 128.128 51.146 127.311 51.1463C126.494 51.1434 125.68 51.0397 124.923 50.7779C124.543 50.6491 124.176 50.4861 123.825 50.2899C123.472 50.0975 123.135 49.8686 122.818 49.6046C122.18 49.0836 121.628 48.4221 121.155 47.6742C121.099 47.5832 121.03 47.4802 120.985 47.399C120.936 47.3172 120.89 47.234 120.848 47.149C120.765 46.9784 120.689 46.804 120.632 46.6221C120.514 46.2596 120.451 45.8755 120.437 45.4761C120.39 43.8711 121.281 42.1057 122.666 40.9092C122.99 40.6317 123.343 40.3833 123.72 40.1756C123.281 40.6744 123.013 41.3268 123.013 42.0437C123.013 43.607 124.28 44.8749 125.844 44.8749C127.407 44.8749 128.674 43.607 128.674 42.0437C128.674 41.2724 128.365 40.5737 127.864 40.0631L127.919 40.0909C127.199 39.372 126.135 38.9622 125.047 38.9576C123.957 38.9553 122.875 39.3022 121.93 39.8581C120.977 40.412 120.141 41.1742 119.476 42.0946C118.813 43.0133 118.335 44.1169 118.176 45.3288C118.097 45.9335 118.111 46.5618 118.219 47.1793C118.272 47.489 118.353 47.7928 118.451 48.0918C118.501 48.2411 118.556 48.3882 118.616 48.5326C118.675 48.68 118.732 48.795 118.79 48.9281C119.02 49.4445 119.299 49.9482 119.621 50.4314C119.938 50.9181 120.311 51.3781 120.72 51.8108C121.533 52.6826 122.548 53.3936 123.649 53.8976C124.752 54.404 125.94 54.7023 127.129 54.8011C128.321 54.9002 129.513 54.8223 130.693 54.5666C131.281 54.4431 131.883 54.2533 132.449 54.0176C133.018 53.7829 133.568 53.4999 134.089 53.1745C136.19 51.8753 137.776 49.9045 138.758 47.729C139.751 45.5475 140.137 43.1248 139.95 40.74Z" fill="#DDC190"/>
<path d="M113.738 58.8216C113.078 60.5388 112.672 62.31 112.468 64.0657C112.258 65.8229 112.261 67.5672 112.407 69.2775C112.483 70.1327 112.599 70.98 112.753 71.8208C112.766 71.8945 112.782 71.9675 112.795 72.0412L69.8913 73.8898L115.261 75.8495L117.491 75.946L117.154 73.3919L117.091 72.9215C117.071 72.749 117.051 72.5723 117.036 72.3949C117.002 72.0396 116.979 71.6806 116.964 71.3213C116.934 70.6012 116.937 69.8793 116.973 69.164C117.051 67.7328 117.25 66.3234 117.606 64.9877C117.955 63.651 118.449 62.385 119.09 61.24C119.717 60.0856 120.516 59.071 121.404 58.1705L116.436 53.9407C115.312 55.4515 114.382 57.0992 113.738 58.8216Z" fill="#DDC190"/>
<path d="M94.1961 66.1486C94.1961 66.8004 94.7246 67.3285 95.3763 67.3285C96.028 67.3285 96.5558 66.8004 96.5558 66.1486C96.5558 65.4969 96.028 64.9681 95.3763 64.9681C94.7246 64.9681 94.1961 65.4969 94.1961 66.1486Z" fill="#DDC190"/>
<path d="M70.7243 66.1486C70.7243 66.8004 71.2528 67.3285 71.9042 67.3285C72.5556 67.3285 73.0841 66.8004 73.0841 66.1486C73.0841 65.4969 72.5556 64.9681 71.9042 64.9681C71.2528 64.9681 70.7243 65.4969 70.7243 66.1486Z" fill="#DDC190"/>
<path d="M42.2598 64.9681C42.2598 65.6202 42.788 66.1487 43.44 66.1487C44.0914 66.1487 44.6199 65.6202 44.6199 64.9681C44.6199 64.3167 44.0914 63.7886 43.44 63.7886C42.788 63.7886 42.2598 64.3167 42.2598 64.9681Z" fill="#DDC190"/>
<path d="M60.7897 21.901C60.7897 21.2493 60.2615 20.7211 59.6095 20.7211C58.9581 20.7211 58.4299 21.2493 58.4299 21.901C58.4299 22.5524 58.9581 23.0806 59.6095 23.0806C60.2615 23.0806 60.7897 22.5524 60.7897 21.901Z" fill="#DDC190"/>
<path d="M44.6199 30.1967C44.6199 29.5453 44.0914 29.0168 43.44 29.0168C42.788 29.0168 42.2598 29.5453 42.2598 30.1967C42.2598 30.8484 42.788 31.3765 43.44 31.3765C44.0914 31.3765 44.6199 30.8484 44.6199 30.1967Z" fill="#DDC190"/>
<path d="M19.2757 51.2471C19.6849 50.8148 20.0579 50.3544 20.3745 49.8677C20.6972 49.3848 20.976 48.8811 21.2052 48.3647C21.2642 48.2317 21.3206 48.1163 21.3799 47.9692C21.4409 47.8245 21.4956 47.6778 21.5452 47.5281C21.6424 47.2295 21.7242 46.925 21.7764 46.6159C21.8852 45.9984 21.8993 45.3698 21.8204 44.7651C21.6613 43.5536 21.183 42.45 20.5195 41.5309C19.8544 40.6109 19.0185 39.8486 18.0665 39.2947C17.1211 38.7388 16.0387 38.392 14.9488 38.3942C13.8611 38.3985 12.797 38.8086 12.0768 39.5275L12.1316 39.4998C11.6311 40.0103 11.3217 40.7087 11.3217 41.4801C11.3217 43.0437 12.589 44.3112 14.1526 44.3112C15.7162 44.3112 16.9835 43.0437 16.9835 41.4801C16.9835 40.7635 16.7148 40.1107 16.2757 39.6119C16.6526 39.8199 17.0063 40.0684 17.3294 40.3458C18.7156 41.542 19.606 43.3074 19.5584 44.9128C19.5444 45.3118 19.4824 45.6962 19.3638 46.0587C19.3074 46.2407 19.2304 46.4148 19.1476 46.5856C19.1056 46.6704 19.0602 46.7538 19.0117 46.8353C18.9654 46.9168 18.8963 47.0195 18.8408 47.1108C18.3678 47.8584 17.8158 48.5199 17.1778 49.0412C16.8615 49.3053 16.5244 49.5341 16.1707 49.7262C15.8196 49.9224 15.4528 50.0855 15.0733 50.2142C14.3156 50.4764 13.5019 50.58 12.6848 50.583C11.8682 50.5823 11.0374 50.4558 10.268 50.2185C9.87974 50.0978 9.52763 49.9577 9.17552 49.7839C8.82537 49.6104 8.49055 49.408 8.17333 49.1788C6.90835 48.2584 5.91105 46.9279 5.31214 45.4119C4.71486 43.8969 4.46969 42.2218 4.65324 40.6014C4.82147 38.9801 5.38191 37.4168 6.30064 36.0703C7.20145 34.7115 8.45338 33.559 9.92016 32.6621C11.3644 31.7548 12.9603 31.1751 14.6253 30.9579C16.2903 30.7297 18.0228 30.8976 19.7103 31.3648C20.5525 31.6035 21.3822 31.9227 22.1836 32.3132C22.9872 32.6983 23.7641 33.1557 24.4967 33.677C25.956 34.7203 27.2734 36.0087 28.2003 37.4833C28.4321 37.8498 28.6359 38.228 28.8025 38.613C28.8886 38.8122 28.9567 38.9811 29.033 39.2168C29.1067 39.4388 29.1843 39.6608 29.2505 39.8855C29.5286 40.782 29.7428 41.7017 29.8777 42.6352C30.1558 44.5003 30.1441 46.4327 29.7457 48.3155C29.5377 49.2515 29.2478 50.1829 28.8116 51.0537C28.3871 51.9308 27.8166 52.7504 27.0394 53.4041C27.9702 52.9828 28.7533 52.2483 29.4154 51.4411C30.0717 50.6211 30.5901 49.6916 31.0035 48.7171C31.8277 46.762 32.1915 44.618 32.199 42.4744C32.1971 41.4015 32.096 40.3279 31.9219 39.2654C31.8828 38.998 31.826 38.7356 31.7713 38.4715C31.7233 38.2198 31.6431 37.9078 31.5607 37.6336C31.3924 37.0699 31.1789 36.5294 30.9324 36.012C30.4431 34.9736 29.8135 34.0307 29.1142 33.1576C28.4126 32.2855 27.6324 31.4838 26.7798 30.7669C25.9286 30.0487 25.0154 29.4025 24.0478 28.8359C23.0769 28.2741 22.0479 27.8033 20.9773 27.4222C18.8386 26.6561 16.4918 26.3291 14.1533 26.5315C11.8127 26.7278 9.5247 27.5204 7.5291 28.6918C5.55112 29.8632 3.74364 31.4685 2.40205 33.4566C1.0748 35.4483 0.243117 37.7904 0.0455469 40.1763C-0.141265 42.5611 0.244748 44.9838 1.23749 47.1656C2.2198 49.3408 3.80558 51.312 5.90681 52.6112C6.42845 52.9362 6.97812 53.2192 7.54703 53.4543C8.11334 53.69 8.71518 53.8791 9.30267 54.0033C10.4829 54.2589 11.6752 54.3368 12.8668 54.2374C14.0561 54.1389 15.2435 53.8406 16.3464 53.3343C17.4481 52.8299 18.463 52.1192 19.2757 51.2471Z" fill="#DDC190"/>
<path d="M69.9982 73.8846L24.7347 75.7644L22.5849 75.8541L22.9839 72.9319C23.0058 72.7588 23.0257 72.5814 23.042 72.4034C23.0769 72.0477 23.102 71.6865 23.1179 71.3256C23.1502 70.6038 23.1499 69.8794 23.1153 69.1608C23.0426 67.7243 22.8477 66.3078 22.4949 64.9636C22.148 63.6184 21.656 62.342 21.0151 61.1849C20.3878 60.0194 19.5855 58.9918 18.6928 58.0796L23.4586 54.0215C24.5779 55.52 25.5051 57.1546 26.1487 58.8653C26.8082 60.5707 27.2164 62.3319 27.4234 64.0791C27.6363 65.8282 27.6373 67.5652 27.4951 69.2697C27.4221 70.1222 27.3093 70.967 27.1577 71.8055C27.1394 71.9059 27.1189 72.0067 27.0993 72.1068L69.9982 73.8846Z" fill="#DDC190"/>
</svg>
